<svg width="100" height="100" viewBox="0 0 100 100" fill="none" xmlns="http://www.w3.org/2000/svg">
  <defs>
    <linearGradient id="skyGradient" x1="0%" y1="0%" x2="100%" y2="100%">
      <stop offset="0%" style="stop-color: #3b82f6;" />
      <stop offset="100%" style="stop-color: #60a5fa;" />
    </linearGradient>
  </defs>
  <rect width="100" height="100" rx="20" fill="url(#skyGradient)" />
  <path d="M77.5 55C82.5 55 85 52.5 85 47.5C85 42.5 80 40 75 42.5C75 35 70 30 62.5 30C55 30 50 35 50 42.5C45 40 40 42.5 40 47.5C40 52.5 42.5 55 47.5 55H77.5Z" fill="rgba(255, 255, 255, 0.9)"/>
  <path d="M25 67.5C25 60 30 55 37.5 55H77.5C82.5 55 85 57.5 85 62.5C85 67.5 82.5 70 77.5 70H37.5C30 70 25 65 25 62.5Z" fill="rgba(255, 255, 255, 0.7)"/>
</svg>